<?xml version="1.0" encoding="UTF-8" standalone="no"?>
<svg width="16px" height="16px" viewBox="0 0 16 16" version="1.1" xmlns="http://www.w3.org/2000/svg" xmlns:xlink="http://www.w3.org/1999/xlink">
    <!-- Generator: Sketch 40.3 (33839) - http://www.bohemiancoding.com/sketch -->
    <title>Customize_icon</title>
    <desc>Created with Sketch.</desc>
    <defs>
        <polygon id="path-1" points="8 5.65686667 8 0.0002 0.000199999999 0.0002 0.000199999999 5.65686667 8 5.65686667"></polygon>
        <polygon id="path-3" points="0.343133333 8 5.9998 8 5.9998 0.0002 0.343133333 0.0002 0.343133333 8"></polygon>
    </defs>
    <g id="Page-1" stroke="none" stroke-width="1" fill="none" fill-rule="evenodd">
        <g id="adiDT_PDP_Hero_Option-2" transform="translate(-1147.000000, -344.000000)">
            <g id="Customize_icon" transform="translate(1147.000000, 344.000000)">
                <path d="M16,8 C16,6 15.2186667,3.90533333 13.6566667,2.34333333 L8,8 L16,8 Z" id="Fill-1" fill="#CCCCCC"></path>
                <g id="Group-5" transform="translate(8.000000, 8.000000)">
                    <mask id="mask-2" fill="white">
                        <use xlink:href="#path-1"></use>
                    </mask>
                    <g id="Clip-4"></g>
                    <path d="M5.65686667,5.65686667 C7.10486667,4.20886667 8.0002,2.0002 8.0002,0.0002 L0.000199999999,0.0002 L5.65686667,5.65686667 Z" id="Fill-3" fill="#4BB27F" mask="url(#mask-2)"></path>
                </g>
                <path d="M8,16 C10,16 12.2426667,15.0713333 13.6566667,13.6566667 L8,8 L8,16 Z" id="Fill-6" fill="#1B81C4"></path>
                <g id="Group-10" transform="translate(2.000000, 8.000000)">
                    <mask id="mask-4" fill="white">
                        <use xlink:href="#path-3"></use>
                    </mask>
                    <g id="Clip-9"></g>
                    <path d="M0.343133333,5.65686667 C1.79113333,7.10486667 3.9998,8.0002 5.9998,8.0002 L5.9998,0.0002 L0.343133333,5.65686667 Z" id="Fill-8" fill="#A82584" mask="url(#mask-4)"></path>
                </g>
                <polyline id="Fill-11" fill="#1D1D1B" points="3.33333333 10 0 12 2 8.66666667"></polyline>
                <polyline id="Fill-13" fill="#1D1D1B" points="3.33333333 10 0 12 2 8.66666667"></polyline>
                <polygon id="Fill-15" fill="#1D1D1B" points="12 1.33333333 4.66666667 8.66666667 3.31866667 7.34666667 10.6666667 0"></polygon>
            </g>
        </g>
    </g>
</svg>