<?xml version="1.0" encoding="utf-8"?>
<!-- Generator: Adobe Illustrator 20.1.0, SVG Export Plug-In . SVG Version: 6.00 Build 0)  -->
<svg version="1.1" id="Isolation_Mode" xmlns="http://www.w3.org/2000/svg" xmlns:xlink="http://www.w3.org/1999/xlink" x="0px"
	 y="0px" viewBox="0 0 100 100" style="enable-background:new 0 0 100 100;" xml:space="preserve">
<polygon id="Page-1_47_" points="48.4,21.3 48.4,31.1 38.6,31.1 38.6,35.5 48.4,35.5 48.4,45.4 52.8,45.4 52.8,35.5 62.7,35.5 
	62.7,31.1 52.8,31.1 52.8,21.3 "/>
<path d="M87.7,5H14.8V3c0-1.1-0.9-2-2-2h-0.4c-1.1,0-2,0.9-2,2v93.9c0,1.1,0.9,2,2,2h0.4c1.1,0,2-0.9,2-2V62h72.9
	c0.9,0,1.3-1.1,1.3-2V6.7C89,5.7,88.6,5,87.7,5z M50.6,52.1c-10.4,0-18.8-8.4-18.8-18.8s8.4-18.8,18.8-18.8S69.4,23,69.4,33.3
	S61,52.1,50.6,52.1z"/>
</svg>
