<?xml version="1.0" encoding="UTF-8" standalone="no"?>
<svg width="16px" height="16px" viewBox="0 0 16 16" version="1.1" xmlns="http://www.w3.org/2000/svg" xmlns:xlink="http://www.w3.org/1999/xlink">
    <!-- Generator: Sketch 41 (35326) - http://www.bohemiancoding.com/sketch -->
    <title>Customization_icon</title>
    <desc>Created with Sketch.</desc>
    <defs></defs>
    <g id="Page-1" stroke="none" stroke-width="1" fill="none" fill-rule="evenodd">
        <g id="adiDT_PDP_Hero_Option-2" transform="translate(-986.000000, -458.000000)">
            <g id="Buttons" transform="translate(976.000000, 445.000000)">
                <g id="Customization_icon" transform="translate(9.000000, 13.000000)">
                    <polygon id="Fill-4" fill="#0082C8" points="1.09748607 15.0313214 15.7410031 15.0313214 15.7410031 13.7394328 1.09748607 13.7394328"></polygon>
                    <g id="Group-10" transform="translate(0.585139, 0.765067)">
                        <polygon id="Fill-1" fill="#231F1F" points="0.414860681 11.7261474 2.85121981 10.5087604 1.63304025 9.28978824"></polygon>
                        <text id="A" font-family="AdiHaus-Bold, AdiHaus" font-size="11.9552" font-weight="bold" fill="#0082C8">
                            <tspan x="8.91176223" y="11.2827616">A</tspan>
                        </text>
                        <path d="M9.26287059,1.66027492 L2.54663529,8.37651022 C2.37861053,8.54453498 2.37861053,8.81717895 2.54663529,8.98520372 L3.15612136,9.59468978 C3.32414613,9.76271455 3.59679009,9.76271455 3.76481486,9.59468978 L10.4810502,2.87845449 L9.26287059,1.66027492 Z" id="Fill-5" fill="#231F1F"></path>
                        <path d="M11.9877251,0.762689783 L11.378239,0.153996285 C11.2102142,-0.0148210526 10.9375703,-0.0148210526 10.7695455,0.153996285 L9.87235666,1.05118514 L11.0905362,2.26936471 L11.9877251,1.37217585 C12.1557498,1.20335851 12.1557498,0.930714551 11.9877251,0.762689783" id="Fill-7" fill="#231F1F"></path>
                    </g>
                </g>
            </g>
        </g>
    </g>
</svg>