<?xml version="1.0" encoding="UTF-8" standalone="no"?>
<svg width="40px" height="40px" viewBox="0 0 40 40" version="1.1" xmlns="http://www.w3.org/2000/svg" xmlns:xlink="http://www.w3.org/1999/xlink">
    <!-- Generator: Sketch 41 (35326) - http://www.bohemiancoding.com/sketch -->
    <title>Wishlist</title>
    <desc>Created with Sketch.</desc>
    <defs>
        <rect id="path-1" x="0" y="0" width="40" height="40"></rect>
        <mask id="mask-2" maskContentUnits="userSpaceOnUse" maskUnits="objectBoundingBox" x="0" y="0" width="40" height="40" fill="white">
            <use xlink:href="#path-1"></use>
        </mask>
    </defs>
    <g id="Page-1" stroke="none" stroke-width="1" fill="none" fill-rule="evenodd">
        <g id="adiDT_PDP_Hero_Option-2" transform="translate(-1190.000000, -575.000000)">
            <g id="Wishlist" transform="translate(1190.000000, 575.000000)">
                <use id="Rectangle-3" stroke="#C8CBCC" mask="url(#mask-2)" stroke-width="1.38" xlink:href="#path-1"></use>
                <path d="M15.9185223,13 C13.2019375,13 11,15.1669595 11,17.8113867 C11,21.1681481 15.6047558,25.3386563 20.0000879,29 C24.3953321,25.3386563 29,21.8798966 29,17.8113006 C29,15.1668734 26.7981504,13.0067183 24.0815656,13.0067183 C22.3818127,13.0067183 20.8834504,13.8562446 20.0000879,15.1318519 C19.1166375,13.8562446 17.6185213,13 15.9185223,13 M15.9185223,14.0335917 C17.199832,14.0335917 18.3994395,14.6611542 19.1274304,15.7122997 L20.000123,16.9723859 L20.872763,15.7122653 C21.5977656,14.6653402 22.7973203,14.0403101 24.0815656,14.0403101 C26.2120487,14.0403101 27.9453228,15.7319724 27.9453228,17.8113006 C27.9453228,18.5559345 27.7583813,19.3016193 27.3738284,20.0909733 C27.0089101,20.8400172 26.4736614,21.6128338 25.7374967,22.4535745 C24.3085321,24.0855469 22.3884923,25.6721275 20.355725,27.3518519 C20.239359,27.4479931 20.121657,27.5452541 20.0032871,27.6431697 C18.1532075,26.0847545 16.1622054,24.3230835 14.6482515,22.613919 C12.927282,20.6710422 12.0546772,19.0552283 12.0546772,17.8113867 C12.0546772,17.3042722 12.1565414,16.8117657 12.3574399,16.3475969 C12.5521509,15.8977433 12.8310251,15.4930922 13.1863283,15.1448751 C13.5420357,14.7962618 13.9556274,14.5226184 14.4155897,14.3315245 C14.8914425,14.1338329 15.3970899,14.0335917 15.9185223,14.0335917" id="Page-1" fill="#000000"></path>
            </g>
        </g>
    </g>
</svg>